# xmcd
#
# Track frame offsets:
#	150
#	18614
#	32990
#	51848
#	68595
#	83987
#	107676
#	131957
#	144630
#	168395
#	190161
#
# Disc length: 2785
#
# Revision: 1
# Processed by: cddbd v1.5.1PL0 Copyright (c) Steve Scherf et al.
# Submitted via: CDex 1.50beta9
# Normalized: r0:DSETVAR1,TDELIM( - )
#
DISCID=9d0adf0b
DTITLE=Various Artist - Jazzadelic 05.1
DYEAR=2005
DGENRE=Jazz
TTITLE0=Hall and Oates - Soul Violins
TTITLE1=Relax - 1930 The Festivities
TTITLE2=Benny Sings - Below The Waterfall
TTITLE3=Josee Koning - Verdronken Vlinder
TTITLE4=Cristina Branco - Sete Pedacos De Vento
TTITLE5=Waldemar Bastos - Pitanga Madurinha
TTITLE6=Brazilian Girls - Lazy Lovers
TTITLE7=Rhythm Junks - Amazing Glue
TTITLE8=Wayne Shorter - Ponta De Ariea
TTITLE9=The Bad Plus - Cheney Pinata
TTITLE10=Copenhagen - Marie
EXTD=YEAR: 2005
EXTT0=
EXTT1=
EXTT2=
EXTT3=
EXTT4=
EXTT5=
EXTT6=
EXTT7=
EXTT8=
EXTT9=
EXTT10=
PLAYORDER=
